<?xml version="1.0" standalone="no"?>
<!DOCTYPE svg PUBLIC "-//W3C//DTD SVG 20010904//EN"
 "http://www.w3.org/TR/2001/REC-SVG-20010904/DTD/svg10.dtd">
<svg version="1.0" xmlns="http://www.w3.org/2000/svg"
 width="1024.000000pt" height="1024.000000pt" viewBox="0 0 1024.000000 1024.000000"
 preserveAspectRatio="xMidYMid meet">

<g transform="translate(0.000000,1024.000000) scale(0.100000,-0.100000)"
fill="#000000" stroke="none">
<path d="M3225 8953 c-302 -35 -483 -87 -730 -208 -243 -119 -405 -237 -601
-437 -364 -372 -576 -823 -624 -1328 -8 -80 -10 -659 -7 -1885 l3 -1770 22
-115 c76 -398 226 -729 468 -1031 183 -228 454 -449 713 -579 218 -109 435
-178 681 -217 108 -17 230 -18 1965 -18 1986 0 1899 -2 2143 52 450 98 892
365 1188 716 300 357 484 789 524 1231 8 84 10 657 8 1886 -4 1964 2 1801 -73
2088 -224 853 -948 1492 -1820 1607 -101 13 -363 15 -1973 14 -1021 -1 -1870
-4 -1887 -6z m2276 -678 c864 -102 1416 -539 1565 -1240 12 -61 26 -140 30
-175 l6 -66 -283 -53 c-156 -30 -365 -70 -464 -91 -193 -40 -194 -40 -195 15
-1 54 -38 202 -71 281 -46 110 -116 210 -212 300 -208 196 -492 284 -877 271
-228 -8 -377 -40 -520 -112 -170 -86 -328 -283 -375 -470 -24 -94 -20 -255 9
-336 49 -140 136 -232 291 -309 112 -55 254 -99 579 -181 809 -203 1183 -321
1479 -470 368 -184 604 -449 726 -816 62 -185 75 -276 75 -523 0 -193 -3 -241
-22 -337 -78 -391 -303 -778 -591 -1017 -289 -240 -635 -384 -1115 -464 -154
-25 -178 -27 -521 -26 -325 0 -374 2 -504 22 -681 107 -1167 398 -1429 855
-145 253 -214 514 -229 863 -7 174 -19 155 115 179 111 19 562 85 582 85 12 0
15 -19 17 -108 7 -448 343 -863 840 -1035 217 -76 410 -102 698 -94 262 7 415
34 599 108 379 153 617 504 593 877 -12 189 -60 313 -164 423 -149 158 -346
248 -803 369 -1027 271 -1272 350 -1550 496 -260 138 -436 306 -545 520 -169
331 -188 797 -48 1198 218 627 792 1005 1634 1076 142 12 527 4 680 -15z
m-1639 -3418 c15 -7 143 -120 285 -252 142 -133 280 -261 306 -285 87 -79 108
-158 65 -238 -30 -54 -262 -317 -304 -342 -50 -31 -113 -36 -167 -12 -47 21
-69 50 -82 110 -12 55 4 90 91 195 55 67 84 110 84 127 0 19 -35 58 -157 175
-307 291 -330 316 -343 365 -16 61 10 127 60 152 40 21 122 23 162 5z m1704
-693 c54 -40 69 -70 69 -139 0 -76 -19 -109 -86 -143 -43 -22 -48 -23 -349
-20 -284 3 -307 4 -339 23 -48 28 -72 65 -78 118 -7 59 1 88 34 128 49 58 57
59 405 56 302 -2 318 -3 344 -23z"/>
</g>
</svg>
